<svg id="Ebene_1" data-name="Ebene 1" xmlns="http://www.w3.org/2000/svg" viewBox="0 0 182.87 123.15">
  <defs>
    <style>
      .cls-1 {
        fill: #fff;
        stroke: #fff;
        stroke-miterlimit: 3.28;
        stroke-width: 0.25px;
      }
    </style>
  </defs>
  <title>Zeichenfläche 9</title>
  <g>
    <path class="cls-1" d="M52,59.52a.71.71,0,0,0-.86.47c-.5,1.72-3.49,6.75-5,6.29-.34-.1-.84-.49-1.36-1.9s8.71-40.83.41-37.81C37.36,29.42,30.9,42.73,26.41,54.5c2.34-9.51,4.21-18.36,2.66-22.37a3.07,3.07,0,0,0-4.23-2C20,32,13.25,43.24,15.54,49.1a6,6,0,0,0,.32.68.7.7,0,0,0,.94.26.71.71,0,0,0,.27-.95,3.31,3.31,0,0,1-.24-.5C15,43.78,21.21,33.05,25.35,31.45c1.12-.44,1.86-.26,2.42,1.18,1.81,4.67-2.32,20.08-5.7,33.29-.81,3.14-1.56,6.16-2.16,8.89a.68.68,0,0,0,.58.83.7.7,0,0,0,.77-.51S21.86,72.72,23,69C26.6,56.88,35.52,31.57,45.68,27.87c6.3-2.29-3.81,32.55-2.2,37,.55,1.5,1.27,2.46,2.27,2.76,3.36,1,6.35-5.87,6.74-7.23A.69.69,0,0,0,52,59.52Z"/>
    <path class="cls-1" d="M80.11,45.47c4-1.46,6.48-6.75,7.3-11.12a19.53,19.53,0,0,0,4.31-2.14c-1,4.06-2,8.45-1.9,8.87a.7.7,0,0,0,.92.52c1.65-.6,8-20,11.07-18.73C103,24.17,99,37.24,98.89,37.43a.7.7,0,0,0,.49.9.73.73,0,0,0,.81-.42s5.06-12.35,8.62-16.91c1.23-1.57,1.77-1.51,1.81-1.48.53.72-4.1,14.65-1.8,15.35,1.82.55,6.53-6.12,9.23-10.23a10.4,10.4,0,0,0,.37,3.88,2.69,2.69,0,0,0,3.79,1.62c6.68-2.43,10.1-12.91,9.85-13.58a.69.69,0,0,0-.88-.41.65.65,0,0,0-.42.42c0,.14-3.17,10.14-9,12.27-1.29.46-1.7.1-2-.82-.48-1.38-.27-3.84.13-6.19l.18-.3a.82.82,0,0,0,.07-.61l-.09,0c.52-2.72,1.19-5.06,1.19-5.06a.69.69,0,0,0-1.33-.4,49.9,49.9,0,0,0-1.43,6c-1.55,2.32-7,10.34-9.06,11.92,0-2.39,4.35-13.06,2.13-14.88-1.25-1-2.63.29-3.58,1.45a49.94,49.94,0,0,0-5.17,8.9c.61-2.8,1.41-6.36-.35-7.18-3.17-1.48-7.13,7-9.63,12.42,1-4.08,2-8.52,2-8.52a.7.7,0,0,0-.51-.84.71.71,0,0,0-.84.51s-.59,2.36-1.28,5.21a.73.73,0,0,0-.38.11,19.82,19.82,0,0,1-4.14,2.28,8.14,8.14,0,0,0-.58-4.68c-.73-1.3-2.17-1.63-3.74-.73a8.54,8.54,0,0,0-2.59,2.12,4.36,4.36,0,0,0-.83,1.65l-.32.39A20,20,0,0,0,77,36a.61.61,0,0,0-.48.43C74.81,41.49,67,49.88,65.05,49.24c-.44-.14-1.15-1.81.72-7.91L65,40.44a.74.74,0,0,0-.38.2c-7.76,7.7-10.81,8.32-11.21,7.91-.73-.75,1.06-6,4.67-9.54,2.64-2.59,5.33-3.49,7.38-1.27a.69.69,0,0,0,1-.93c-2.81-3.07-6.43-1.55-9.1.95-3.55,3.33-7,9.59-5,11.73,1.65,1.76,5.28-.34,11.36-6.08-1,4-1,6.55.87,7.15,2.78.92,7.87-4.44,10.94-9.27a6.65,6.65,0,0,0,.28,2.6C76.42,45.54,78,46.23,80.11,45.47Zm2.34-14.85a5.93,5.93,0,0,1,1.21-.72A.71.71,0,0,0,84,29a.9.9,0,0,0-.22-.27l.21-.13c1.13-.64,1.52-.38,1.85.21a8.17,8.17,0,0,1,.34,4.48c-3.16.82-4.7-.18-4.93-1.08a1.42,1.42,0,0,1-.05-.42A10.84,10.84,0,0,1,82.45,30.62ZM77.14,43.43c-.72-2,.59-6.9,3-10.32.84,1.58,3,2.2,5.77,1.65-.91,4-3.25,8.31-6.28,9.4C78,44.75,77.45,44.3,77.14,43.43Z"/>
    <path class="cls-1" d="M120.4,12.93l3.06-1.46a.7.7,0,0,0,.33-.92.71.71,0,0,0-.93-.33l-3.06,1.46a.7.7,0,0,0-.33.92A.71.71,0,0,0,120.4,12.93Z"/>
    <path class="cls-1" d="M167.79,59.25a6.73,6.73,0,0,0-.47-1.3l-11.89,4.19C158.14,51.7,160.94,42,160.94,42a.7.7,0,0,0-1.34-.38s-2.95,10.29-5.73,21.08l-.18.06c-.85.31-1.15.11-1.56.72-.15.23-.13.4,0,.52-1.75,2.64-9.52,14-13.37,13.53-.81-.09-1.51-1.37-1.44-3.89a.68.68,0,0,0,.68.15c3.45-1.12,7.3-8.15,6.47-10.87a1.8,1.8,0,0,0-2.47-1c-2.77.88-4.61,4.31-5.48,7.74a.7.7,0,0,0-.95-.27A41.25,41.25,0,0,0,126,76.51c-1.65-2.58-4-3-.59-7.34a1.25,1.25,0,0,1,.81-.51c.09.14.23,1.52-1.79,4.88a.7.7,0,0,0,.23.95.71.71,0,0,0,1-.24c2.11-3.51,2.67-5.71,1.47-6.67-1-.78-2.18,0-2.77.72-2.09,2.63-2.22,4.39-1.68,5.77a20.26,20.26,0,0,1-4.07,2.23,8.15,8.15,0,0,0-.58-4.68c-.73-1.3-2.17-1.63-3.74-.73a8.72,8.72,0,0,0-2.6,2.12,4.4,4.4,0,0,0-.82,1.65l-.32.39a20.06,20.06,0,0,0-2.69,4.59.72.72,0,0,0-.58-.2,32.22,32.22,0,0,0-10.27,3.43c2.77-10.66,4.38-21.88.9-22.52-5-.92-17.48,11.6-19.47,22.6a15.93,15.93,0,0,0-.27,2.37.71.71,0,0,0,.67.72.7.7,0,0,0,.72-.67,16.36,16.36,0,0,1,.24-2.17c1.94-10.71,14.33-22.13,17.86-21.48,1.25.23,1,9.76-2.24,21.73,0,.12-.07.26-.1.39l-.46.28c-13.23,8.36-19.34,24.69-17.22,28.14a1.55,1.55,0,0,0,1.54.72c7.51-1.15,13.59-15,17.19-27.74l.14-.5.34-.19a30.76,30.76,0,0,1,10.55-3.72c-.87,2.48-1.18,4.92-.6,6.57S108.9,89.74,111,89c4-1.46,6.48-6.75,7.31-11.12a20,20,0,0,0,5-2.58A26,26,0,0,1,125,77.57c-4.29,4.85-5.9,9.57-4.43,10.84.79.68,1.62-.09,2-.61,3.88-4.8,4.66-7.69,4-9.87l0-.08a39.77,39.77,0,0,1,9.63-7.32l.06,0c-.1.48-.18,1-.24,1.42-.33,2.51-.24,6.64,2.53,7,5.32.62,13.2-11.69,14.78-14.25-2.5,9.81-4.76,19.38-4.24,22,.08.36.4,1.19,1.24,1a1.69,1.69,0,0,0,.71-.35c3.1-2.44,8.22-20.13,5.2-24Zm-25.38,3.92c.71-.22.67-.06.72.11.51,1.67-2.92,8.28-5.57,9.14a1.5,1.5,0,0,0-.18.09C137.8,68.51,139.89,64,142.41,63.17ZM78.9,111.6c-.11,0-.08,0-.14,0-1.27-1.86,3.37-17.21,15.92-25.7C91,98.44,84.94,110.68,78.9,111.6Zm31.63-23.93c-1.63.59-2.18.14-2.49-.73-.72-2,.59-6.9,3-10.31.85,1.57,3.06,2.19,5.78,1.64C115.9,82.3,113.56,86.58,110.53,87.67Zm6.55-10.89c-3.15.82-4.69-.18-4.93-1.08a1.87,1.87,0,0,1,0-.42,9.4,9.4,0,0,1,1.24-1.15,6.36,6.36,0,0,1,1.2-.72.7.7,0,0,0,.36-.91.94.94,0,0,0-.22-.28l.21-.13c1.12-.63,1.52-.38,1.85.21A8.09,8.09,0,0,1,117.08,76.78Zm4.45,10.15s-.06.06-.06.07c0-1.29,1-4.31,4-7.82C125.49,80.68,124.67,83,121.53,86.93Zm29.84-2.37a7,7,0,0,1-.92,1.41c-.11-2.76,2.08-12.49,4.51-22C157.1,65.11,154.38,78.9,151.37,84.56Z"/>
    <path class="cls-1" d="M97.4,51a.35.35,0,0,0,0-.5.41.41,0,0,0-.55.05h0a4.07,4.07,0,0,1-2.38,1.29,10.46,10.46,0,0,1-1.25.06,8.64,8.64,0,0,0-1.43.08c-1.38.22-2.8,1.18-2.84,2.6a.48.48,0,0,0,.44.52.79.79,0,0,0,.82-.52c.29-1.21,1.55-1.39,2.75-1.5a4,4,0,0,1-.78,3.29,4.36,4.36,0,0,1-3.79,1.46,3.9,3.9,0,0,1-3.46-2,3.33,3.33,0,0,1,.45-3.46,3.49,3.49,0,0,1,3.88-.88l.37.21,0-.13a1,1,0,0,0,.86-.58.54.54,0,0,0-.29-.66L90,50.16c-1.28-.73-2.73-1.55-2.28-3.13a1.66,1.66,0,0,1,1.58-1.24,2,2,0,0,1,1.47.63.73.73,0,0,1,.11.7.34.34,0,0,0,.16.44.57.57,0,0,0,.66-.18,1.3,1.3,0,0,0,.15-1.16,2.62,2.62,0,0,0-1.59-1.42,3.17,3.17,0,0,0-3.42,1,3.14,3.14,0,0,0-.39,3.43,4.2,4.2,0,0,0,.6.82,5.22,5.22,0,0,0-2.1.91,4.6,4.6,0,0,0-1.72,4.64,4.3,4.3,0,0,0,3.14,3.26,6.25,6.25,0,0,0,1.92.29,6.13,6.13,0,0,0,4.18-1.53A4.8,4.8,0,0,0,93.92,53,5.18,5.18,0,0,0,97.4,51Z"/>
  </g>
</svg>
